PathFileType	4	(X/Y/Z)	C:/Users/beibeiliu/ov580/test_trc/capture2\sequence.38_training_dense_right.trc
DataRate	CameraRate	NumFrames	NumMarkers	Units	OrigDataRate	OrigDataStartFrame	OrigNumFrames
120	120	18	19	mm	120	251	400
Frame#	Time	ThumbCMC			ThumbMCP			ThumbIP			ThumbTip			IndexMCP			IndexPIP			IndexTip			MiddleMCP			MiddlePIP			MiddleTip			RingMCP			RingPIP			RingTip			PinkyMCP			PinkyPIP			PinkyTip			BackHand1			BackHand2			BackHand3	
		X0	Y0	Z0	X1	Y1	Z1	X2	Y2	Z2	X3	Y3	Z3	X4	Y4	Z4	X5	Y5	Z5	X6	Y6	Z6	X7	Y7	Z7	X8	Y8	Z8	X9	Y9	Z9	X10	Y10	Z10	X11	Y11	Z11	X12	Y12	Z12	X13	Y13	Z13	X14	Y14	Z14	X15	Y15	Z15	X16	Y16	Z16	X17	Y17	Z17	X18	Y18	Z18	
250	2.08333	114.839	-33.5195	54.1747	115.385	-52.6552	28.1987	113.2	-56.1944	-0.753313	119.931	-52.0651	-23.2644	97.3686	8.24432	-3.01181	94.5638	10.6111	-26.2007	91.9139	5.94317	-52.4039	124.75	17.8996	-10.1061	126.483	13.809	-41.3378	132.731	-5.99875	-66.1919	150.566	18.6951	-8.23184	154.39	10.5966	-37.1612	157.489	-14.3243	-58.8547	172.838	19.6241	0.974437	181.079	23.0863	-20.8843	188.15	28.4166	-42.5972	149.481	18.3872	47.4697	154.118	10.5658	72.7805	121.689	5.5285	57.5037	
251	2.09167	113.131	-33.3272	55.6024	115.875	-48.694	29.3615	112.702	-53.5257	2.57678	115.098	-50.2872	-25.3331	100.433	8.13388	0.886024	91.774	9.63108	-28.8817	95.6553	6.78826	-58.8006	123.599	17.5355	-10.1104	127.099	12.0348	-42.3318	131.653	-5.98916	-66.3715	148.413	18.4848	-10.3617	155.931	12.0573	-38.0531	156.703	-10.9137	-59.7723	175.637	20.4509	0.782141	181.379	21.4004	-21.4989	188.571	29.8317	-42.8887	149.561	20.4657	44.2693	158.289	11.8055	71.438	123.521	6.0404	57.0652	
252	2.1	114.357	-33.1248	55.0402	112.266	-47.5137	25.4455	110.576	-51.9494	0.0448807	115.609	-49.4856	-21.478	106.058	12.6664	-1.25699	96.9418	13.048	-30.2491	95.1755	8.53654	-58.8362	126.916	18.1595	-11.8676	130.697	14.0116	-40.462	135.27	-9.56776	-67.7401	150.243	18.5285	-10.204	156.438	13.0918	-38.1332	157.961	-8.28055	-61.3018	172.673	19.2152	-0.413134	184.859	20.8788	-19.4893	193.91	27.7929	-40.538	153.956	20.8514	45.6838	159.694	12.0084	73.2515	126.376	7.55336	58.2525	
253	2.10833	113.319	-29.7225	53.6081	113.433	-45.4842	29.9911	107.204	-49.512	-2.02641	110.073	-47.9053	-24.6	103.684	13.4883	-0.838291	97.078	15.5721	-28.722	96.6557	12.4696	-53.9455	127.063	18.186	-11.4763	132.204	12.4023	-43.739	135.376	-9.4122	-67.3257	153.73	20.4298	-11.151	156.303	13.0669	-36.3866	157.795	-6.32845	-60.8884	178.313	18.3191	1.15082	184.458	19.9823	-17.6643	195.034	27.6973	-39.3544	155.964	19.264	43.8349	156.832	12.3241	74.0091	127.81	9.25961	59.4757	
254	2.11667	116.245	-27.3071	56.5066	113.411	-41.7474	28.4375	108.161	-44.4274	1.61276	113.896	-40.6083	-23.0839	107.684	19.1238	-4.00672	102.718	19.7194	-27.6383	98.08	14.4197	-58.7376	129.381	20.0611	-10.7914	132.029	12.7053	-42.6183	138.05	-11.7065	-66.4161	154.862	21.1831	-11.0166	157.062	13.9923	-38.7604	158.75	-6.96563	-61.6066	182.088	19.5216	1.25909	184.838	20.5331	-22.5641	194.904	25.1316	-40.4708	160.131	20.8814	47.0017	157.946	13.143	71.9151	127.697	9.59493	60.5803	
255	2.125	114.448	-25.4261	58.0412	110.097	-38.0084	26.0699	104.884	-42.7284	-0.71781	110.163	-39.0921	-26.2588	109.919	20.3228	0.0639755	102.336	23.2912	-28.8125	101.69	18.7959	-59.0362	132.698	22.5861	-12.8999	134.931	13.9716	-41.6909	138.579	-8.79242	-62.0658	157.584	20.9873	-8.14954	160.747	13.1992	-40.8336	159.811	-4.93849	-59.6125	184.516	18.9079	1.98814	190.254	19.4136	-19.8856	197.73	25.0786	-39.0904	160.74	20.9531	43.8247	162.134	12.1684	75.5964	128.307	11.0964	58.6688	
256	2.13333	115.523	-18.8367	54.1465	111.074	-34.3267	26.9781	106.68	-36.6324	0.0349167	112.618	-34.5986	-21.1279	114.86	25.2643	-2.73422	106.568	27.9307	-27.1799	106.913	23.3701	-56.1752	139.257	25.2155	-10.1492	139.32	15.2178	-41.4333	138.63	-11.9099	-61.9118	157.563	22.6213	-12.3009	165.82	14.1967	-37.4582	161.623	-3.96098	-59.5677	187.336	18.6804	-0.40417	192.063	18.4574	-21.4981	202.983	23.664	-37.1606	161.445	21.4421	45.8583	163.564	14.3453	73.4084	135.124	15.7672	61.8299	
257	2.14167	113.971	-16.3069	58.0501	111.579	-29.4264	29.3046	105.182	-34.2365	2.6216	113.149	-30.1032	-22.1618	115.907	28.8268	-2.92606	114.781	30.8527	-32.3376	113.037	26.0945	-56.6329	138.974	27.1093	-11.9665	140.295	15.9339	-39.8515	141.387	-13.154	-59.4385	162.309	23.059	-10.557	166.835	13.3045	-38.5928	162.051	-4.68654	-59.0256	189.773	15.4087	1.38284	196.751	15.3081	-17.7616	209.057	21.0584	-40.7925	167.804	21.6607	43.2399	169.221	14.5377	73.2772	138.095	17.1768	61.6709	
258	2.15	117.346	-11.9768	58.8389	106.304	-25.3691	27.7176	104.573	-28.4927	2.38368	111.547	-27.7424	-23.5135	125.52	33.4029	-0.669624	120.732	35.2749	-31.724	121.269	29.7951	-54.3149	149.019	27.1932	-11.4062	142.633	14.4028	-42.3837	141.948	-14.9779	-57.4698	172.254	21.3576	-12.2211	170.356	12.1362	-38.9495	164.416	-9.75581	-59.9448	190.729	11.3771	4.52484	203.454	11.2887	-18.4669	210.818	17.2585	-40.7144	171.86	21.7504	46.4559	176.285	11.6307	72.4923	140.908	21.6454	61.1296	
259	2.15833	117.577	-6.58581	58.7922	110.548	-20.3628	29.231	105.375	-23.5429	3.73402	109.12	-25.3642	-19.7949	127.87	37.3719	-1.74577	124.266	38.2187	-28.9726	122.512	33.1112	-56.6164	154.115	27.3265	-13.7746	145.604	15.3589	-39.5918	145.143	-12.7753	-54.8069	172.087	20.6733	-7.63043	174.098	10.7885	-33.95	163.568	-7.50178	-56.2767	197.795	8.94769	3.08212	204.967	8.41688	-19.973	214.448	13.0213	-36.9997	178.867	19.9442	44.8154	179.75	7.13619	75.9641	143.651	21.1718	63.9698	
260	2.16667	117.787	-4.31844	60.0993	109.922	-18.582	33.4291	101.792	-21.8199	4.80874	104.692	-23.7768	-21.2031	136.895	39.0034	-2.52736	133.523	40.5048	-27.3102	128.229	34.1133	-56.0228	157.351	28.0705	-8.04024	151.584	16.873	-38.507	142.103	-12.9829	-52.2421	175.279	18.651	-8.68207	173.588	9.55209	-36.5537	163.69	-10.2781	-56.9841	199.784	5.80459	2.99724	206.335	4.15161	-16.2748	216.967	6.75106	-36.7506	181.109	14.6034	48.3557	179.5	6.29064	76.3066	150.998	24.0952	60.7598	
261	2.175	121.638	-0.955659	60.3622	110.306	-14.5549	29.0472	105.63	-17.6441	0.995482	111.289	-19.971	-21.5876	140.323	40.3731	-0.32172	133.913	44.1856	-25.4925	133.978	35.366	-53.9322	158.638	29.2548	-11.0692	154.635	13.6057	-38.0524	138.654	-16.4334	-49.343	179.424	17.0289	-9.82663	178.357	6.72084	-34.3309	161.65	-12.5263	-56.1897	197.385	1.88104	7.29908	208.521	0.604871	-15.8054	216.537	4.84825	-40.424	183.393	14.9028	46.7947	178.526	6.02254	75.8398	152.433	22.9812	62.7355	
262	2.18333	120.561	2.7007	56.9293	109.28	-13.8589	32.2391	102.029	-15.9509	3.86678	109.561	-18.564	-21.0151	143.323	42.5387	-2.4194	142.226	42.4291	-27.4963	139.538	35.2646	-54.6674	163.214	26.0896	-10.8174	153.587	10.9355	-39.0243	139.243	-16.916	-45.0097	180.86	15.2132	-6.60111	175.241	5.09424	-35.7524	162.307	-15.8433	-54.9394	199.17	-0.392852	5.47625	207.467	-1.36706	-14.7169	217.782	-1.42099	-35.2576	185.93	10.4362	49.8396	182.872	5.32518	76.6386	156.201	25.5321	60.9276	
263	2.19167	121.523	4.62494	55.5582	110.116	-9.5419	29.0308	107.161	-11.7343	-1.29516	112.97	-14.8306	-23.2476	145.896	44.1419	-1.19327	141.753	46.1038	-28.4789	140.759	37.4413	-51.9268	164.113	25.9335	-8.60576	154.312	12.4579	-35.5508	133.744	-16.4968	-42.4174	181.449	15.693	-7.41896	178.96	3.22567	-35.0602	163.035	-15.432	-51.9854	199.622	-2.10767	7.28673	206.698	-3.85837	-15.8713	217.084	-1.36238	-36.1945	184.407	11.8301	49.5281	181.775	4.7379	77.6726	154.94	23.2686	63.6924	
264	2.2	118.51	5.79825	60.069	110.237	-7.47493	30.7941	107.711	-9.04993	-1.83556	117.697	-13.6287	-20.625	149.274	44.0091	-1.99699	144.522	45.9254	-26.9351	144.574	34.4499	-52.476	164.497	25.2031	-10.3721	153.757	9.72661	-36.5382	132.679	-20.4588	-39.0379	183.669	12.9879	-6.27943	174.35	4.48494	-34.9132	157.124	-18.432	-51.9392	197.379	-1.82627	6.67704	205.734	-3.66987	-16.1857	214.414	-3.11674	-41.1665	186.762	8.87239	50.097	180.286	4.1633	74.9626	155.901	24.117	63.5353	
265	2.20833	123.586	8.78605	56.5765	109.809	-3.00944	27.6077	106.76	-5.5809	-2.49232	117.424	-10.6099	-25.3888	153.018	43.1212	-0.629124	149.438	45.2706	-28.0345	144.552	33.7405	-55.1818	164.123	25.7972	-13.3003	152.252	10.3065	-35.1329	133.899	-19.8141	-36.6896	181.027	12.9101	-8.51342	174.542	0.406657	-37.3076	156.604	-14.8702	-49.2764	201.303	-4.99676	5.06879	205.08	-5.9297	-13.4365	214.77	-9.99367	-40.0803	186.841	9.14583	44.746	181.214	2.84008	78.6174	157.408	26.4173	62.8462	
266	2.21667	120.761	11.6041	55.8963	110.457	-1.95188	29.4162	109.171	-3.86798	1.88667	116.003	-9.41451	-25.3741	154.822	41.6133	1.98349	149.395	44.0878	-31.1379	146.148	31.4339	-54.3392	165.303	24.0522	-13.1294	150.493	9.84795	-36.7741	128.639	-15.4271	-37.2119	180.067	13.2567	-8.42597	176.267	-1.02459	-33.7054	152.35	-17.9012	-48.951	196.255	-5.39784	8.02531	207.367	-11.4461	-15.1327	213.368	-8.35115	-41.0351	187.406	8.57483	47.399	181.89	1.14719	73.2002	159.585	23.1656	62.929	
267	2.225	124.728	9.78389	59.8417	110.959	0.310531	28.7041	107.39	-2.70206	1.35901	116.521	-8.95243	-21.6623	152.015	44.2739	0.556853	153.484	41.6269	-28.5224	144.985	27.7944	-57.2527	164.405	25.3498	-11.8573	152.013	8.58494	-35.8605	129.862	-15.5858	-37.607	182.299	10.8041	-9.01256	170.937	0.845728	-35.3675	147.528	-17.2874	-48.997	196.45	-8.11282	6.70201	205.802	-13.4376	-14.6462	212.414	-14.2287	-42.6445	188.378	7.46126	44.828	183.65	1.17341	74.516	160.746	25.5718	59.8318	
